<svg width="107" height="84" viewBox="0 0 107 84" fill="none" xmlns="http://www.w3.org/2000/svg">
<path d="M70.5186 21.6265C72.5465 19.8826 73.7096 17.3405 73.7096 14.6519V6.6106C73.7096 5.44445 72.7726 4.49908 71.6168 4.49908C70.461 4.49908 69.5241 5.44445 69.5241 6.6106V14.6519C69.5241 16.1015 68.897 17.4722 67.8036 18.4124C63.3705 22.2244 61.0268 24.2175 59.788 25.259C58.9363 24.4735 57.968 23.8464 56.9035 23.3921C55.6533 22.8586 54.3264 22.588 52.9598 22.588C51.5932 22.588 50.2663 22.8586 49.0161 23.3921C47.9527 23.8459 46.9854 24.4722 46.1343 25.2565C44.8798 24.2017 42.4948 22.1733 37.962 18.2749C36.9702 17.4219 36.4013 16.1784 36.4013 14.8634V6.6106C36.4013 5.44445 35.4644 4.49908 34.3086 4.49908C33.1528 4.49908 32.2158 5.44445 32.2158 6.6106V14.8634C32.2158 17.4173 33.3205 19.8321 35.2468 21.4888C36.9371 22.9425 39.3731 25.034 41.3792 26.7421C42.3293 27.551 43.1034 28.2062 43.6855 28.6941C43.6658 28.7393 43.6458 28.7843 43.6267 28.8298C43.0979 30.0912 42.8298 31.43 42.8298 32.8088V44.6887C42.8298 46.0675 43.0979 47.4063 43.6267 48.6677C44.0424 49.6594 44.6041 50.5684 45.3007 51.3785V75.839C45.3007 77.0051 46.2376 77.9505 47.3934 77.9505C48.5492 77.9505 49.4862 77.0051 49.4862 75.839V54.2922C50.5971 54.702 51.7632 54.9095 52.9598 54.9095C54.1564 54.9095 55.3226 54.702 56.4335 54.2922V75.8389C56.4335 77.0051 57.3704 77.9505 58.5262 77.9505C59.682 77.9505 60.619 77.0051 60.619 75.8389V51.3785C61.3155 50.5685 61.8772 49.6594 62.2929 48.6677C62.8217 47.4063 63.0899 46.0676 63.0899 44.6887V32.8089C63.0899 31.43 62.8217 30.0913 62.2929 28.8298C62.2743 28.7855 62.2548 28.7417 62.2356 28.6977C62.8 28.2247 63.5444 27.5948 64.4554 26.8194C66.4286 25.1398 68.8417 23.0684 70.5186 21.6265ZM52.9598 50.6865C49.682 50.6865 47.0153 47.9959 47.0153 44.6887V32.8089C47.0153 29.5017 49.682 26.8111 52.9598 26.8111C56.2377 26.8111 58.9043 29.5017 58.9043 32.8089V44.6887C58.9043 47.9959 56.2377 50.6865 52.9598 50.6865Z" fill="#3C5560"/>
<path d="M46.2796 18.2931C47.1465 19.1679 48.1567 19.8549 49.2819 20.3351C50.448 20.8327 51.6855 21.085 52.96 21.085C54.2345 21.085 55.4719 20.8327 56.638 20.3351C57.7633 19.8549 58.7734 19.1679 59.6404 18.2931C60.5073 17.4184 61.1883 16.3992 61.6642 15.2639C62.1574 14.0873 62.4075 12.8388 62.4075 11.5529C62.4075 10.267 62.1574 9.01848 61.6642 7.84194C61.1882 6.70659 60.5073 5.68741 59.6404 4.81268C58.7734 3.93795 57.7633 3.25092 56.638 2.77074C55.4719 2.27312 54.2345 2.02081 52.96 2.02081C51.6855 2.02081 50.448 2.27312 49.2819 2.77077C48.1567 3.25098 47.1465 3.93798 46.2796 4.81271C45.4126 5.68744 44.7317 6.70662 44.2557 7.84197C43.7625 9.0185 43.5125 10.2671 43.5125 11.5529C43.5125 12.8388 43.7625 14.0874 44.2557 15.2639C44.7317 16.3992 45.4126 17.4184 46.2796 18.2931ZM52.96 6.24384C55.8614 6.24384 58.2219 8.62548 58.2219 11.5529C58.2219 14.4804 55.8614 16.862 52.96 16.862C50.0585 16.862 47.698 14.4804 47.698 11.5529C47.698 8.62548 50.0585 6.24384 52.96 6.24384Z" fill="#3C5560"/>
<path d="M14.8564 23.4938C15.7029 24.3479 16.6892 25.0187 17.7879 25.4876C18.9266 25.9735 20.1348 26.2199 21.3793 26.2199C23.4052 26.2199 25.3283 25.5694 26.9406 24.3388C27.7148 23.7479 28.3893 23.0413 28.9451 22.2386C29.5096 21.4234 29.9384 20.5284 30.2195 19.5783C30.5501 18.4609 29.9204 17.2846 28.8129 16.951C27.7054 16.6174 26.5395 17.2528 26.2089 18.3703C25.5771 20.5056 23.5911 21.9969 21.3793 21.9969C18.6006 21.9969 16.34 19.716 16.34 16.9125C16.34 14.109 18.6006 11.8281 21.3793 11.8281C23.1326 11.8281 24.7335 12.7263 25.6617 14.2307C26.0583 14.8735 26.7413 15.2267 27.4404 15.2266C27.8179 15.2266 28.2002 15.1235 28.5444 14.9074C29.5256 14.2911 29.8258 12.9889 29.215 11.999C28.4022 10.6815 27.2659 9.58032 25.9291 8.81449C24.5481 8.02329 22.9748 7.6051 21.3793 7.6051C20.1349 7.6051 18.9266 7.85147 17.788 8.3374C16.6892 8.80627 15.7029 9.47708 14.8564 10.3312C14.0099 11.1853 13.345 12.1804 12.8803 13.289C12.3987 14.4378 12.1545 15.6569 12.1545 16.9125C12.1545 18.1681 12.3987 19.3872 12.8803 20.5361C13.345 21.6446 14.0098 22.6397 14.8564 23.4938Z" fill="#3C5560"/>
<path d="M30.0767 32.5861C29.9998 32.4385 29.9075 32.3043 29.8036 32.1836C29.4005 31.5223 28.9215 30.9099 28.3701 30.3535C27.4628 29.4381 26.4057 28.7191 25.2282 28.2166C24.008 27.6959 22.713 27.4318 21.3792 27.4318C20.0454 27.4318 18.7504 27.6958 17.5302 28.2166C16.3527 28.7191 15.2956 29.4381 14.3883 30.3535C13.9088 30.8373 13.4843 31.3637 13.1165 31.9275C12.9017 32.1027 12.7177 32.3237 12.5809 32.5861L2.03815 52.808C1.50009 53.8401 1.89311 55.1168 2.91603 55.6597C3.2269 55.8247 3.56009 55.9029 3.88855 55.9029C4.64085 55.9029 5.3679 55.4924 5.74245 54.774L11.4926 43.7449V48.9272C11.4926 50.273 11.7542 51.5795 12.2704 52.8107C12.673 53.7712 13.216 54.6522 13.8886 55.4382V79.67C13.8886 80.8362 14.8256 81.7815 15.9814 81.7815C17.1372 81.7815 18.0742 80.8362 18.0742 79.67V58.3303C19.1328 58.7097 20.2418 58.9024 21.3792 58.9024C22.5166 58.9024 23.6257 58.7097 24.6843 58.3303V79.67C24.6843 80.8362 25.6213 81.7815 26.7771 81.7815C27.9329 81.7815 28.8698 80.8362 28.8698 79.67V55.4382C29.5425 54.6522 30.0855 53.7712 30.4881 52.8107C31.0042 51.5795 31.2659 50.2729 31.2659 48.9272V43.9381L36.9152 54.774C37.2898 55.4925 38.0168 55.9029 38.7691 55.9029C39.0975 55.9029 39.4308 55.8247 39.7416 55.6597C40.7645 55.1168 41.1576 53.8401 40.6195 52.808L30.0767 32.5861ZM21.3792 54.6795C18.2355 54.6795 15.678 52.099 15.678 48.9272V37.4071C15.678 34.2353 18.2356 31.6549 21.3792 31.6549C24.5228 31.6549 27.0804 34.2353 27.0804 37.4071V48.9272C27.0803 52.099 24.5228 54.6795 21.3792 54.6795Z" fill="#3C5560"/>
<path d="M77.3793 22.2386C77.9351 23.0413 78.6095 23.7479 79.3838 24.3388C80.9961 25.5695 82.9191 26.2199 84.9451 26.2199C86.1895 26.2199 87.3978 25.9735 88.5364 25.4876C89.6352 25.0187 90.6215 24.3479 91.468 23.4938C92.3145 22.6397 92.9794 21.6446 93.4441 20.536C93.9257 19.3872 94.1699 18.1681 94.1699 16.9125C94.1699 15.6569 93.9257 14.4378 93.4441 13.289C92.9794 12.1804 92.3145 11.1852 91.468 10.3311C90.6215 9.47702 89.6352 8.80621 88.5364 8.33734C87.3978 7.85141 86.1895 7.60504 84.9451 7.60504C83.3496 7.60504 81.7763 8.02323 80.3953 8.81443C79.0585 9.58029 77.9223 10.6815 77.1094 11.9989C76.4985 12.9889 76.7988 14.2911 77.78 14.9074C78.7612 15.5236 80.0518 15.2207 80.6627 14.2307C81.5909 12.7262 83.1918 11.8281 84.9451 11.8281C87.7237 11.8281 89.9843 14.1089 89.9843 16.9125C89.9843 19.716 87.7237 21.9969 84.9451 21.9969C82.7333 21.9969 80.7473 20.5055 80.1154 18.3702C79.7848 17.2528 78.6189 16.6175 77.5115 16.951C76.404 17.2846 75.7742 18.4609 76.1048 19.5783C76.3859 20.5284 76.8147 21.4234 77.3793 22.2386Z" fill="#3C5560"/>
<path d="M104.286 52.808L93.7433 32.5861C93.6065 32.3237 93.4225 32.1026 93.2076 31.9274C92.8398 31.3636 92.4153 30.8372 91.9359 30.3535C91.0286 29.4381 89.9715 28.7191 88.7939 28.2166C87.5737 27.6959 86.2787 27.4318 84.9449 27.4318C83.6112 27.4318 82.3162 27.6958 81.096 28.2166C79.9184 28.7191 78.8613 29.4381 77.954 30.3535C77.4027 30.9099 76.9237 31.5223 76.5206 32.1836C76.4167 32.3043 76.3244 32.4385 76.2474 32.5861L65.7047 52.808C65.1666 53.8401 65.5596 55.1168 66.5825 55.6597C66.8934 55.8247 67.2266 55.903 67.555 55.903C68.3073 55.903 69.0344 55.4924 69.409 54.774L75.0583 43.9381V48.9272C75.0583 50.273 75.3199 51.5795 75.8361 52.8107C76.2387 53.7712 76.7817 54.6522 77.4543 55.4382V79.6701C77.4543 80.8362 78.3913 81.7816 79.5471 81.7816C80.7029 81.7816 81.6398 80.8362 81.6398 79.6701V58.3303C82.6985 58.7098 83.8075 58.9025 84.9449 58.9025H84.9449C86.0823 58.9025 87.1913 58.7098 88.25 58.3303V79.6701C88.25 80.8362 89.187 81.7816 90.3428 81.7816C91.4986 81.7816 92.4356 80.8362 92.4356 79.6701V55.4382C93.1081 54.6522 93.6511 53.7712 94.0538 52.8107C94.5699 51.5795 94.8316 50.2729 94.8316 48.9272V43.7449L100.582 54.774C100.956 55.4925 101.683 55.903 102.436 55.903C102.764 55.903 103.097 55.8247 103.408 55.6597C104.431 55.1168 104.824 53.84 104.286 52.808ZM84.9449 54.6794C81.8013 54.6794 79.2438 52.099 79.2438 48.9272V37.4071C79.2438 34.2353 81.8013 31.6549 84.945 31.6549C88.0886 31.6549 90.6461 34.2353 90.6461 37.4071V48.9272C90.6461 52.099 88.0886 54.6794 84.9449 54.6794Z" fill="#3C5560"/>
</svg>
