<svg width="93" height="93" viewBox="0 0 93 93" fill="none" xmlns="http://www.w3.org/2000/svg">
<g clip-path="url(#clip0)">
<path d="M45.196 20.5173C47.7117 20.5173 50.0768 19.5377 51.8557 17.7588C53.6345 15.9799 54.6142 13.6148 54.6142 11.0991C54.6142 9.69991 53.4799 8.56561 52.0806 8.56561C50.6814 8.56561 49.5471 9.69991 49.5471 11.0991C49.5471 13.4983 47.5952 15.4502 45.196 15.4502C42.7968 15.4502 40.8449 13.4983 40.8449 11.0991C40.8449 8.69994 42.7968 6.74808 45.196 6.74808C45.5357 6.74808 45.8732 6.78698 46.1991 6.86368C46.3944 6.90964 46.5894 6.93166 46.7817 6.93166C47.9305 6.93156 48.9711 6.14475 49.2457 4.97801C49.5662 3.61598 48.722 2.25196 47.36 1.9314C46.6541 1.76526 45.9261 1.68103 45.196 1.68103C42.6803 1.68103 40.3152 2.66068 38.5364 4.43957C36.7575 6.2184 35.7778 8.58351 35.7778 11.0992C35.7778 13.6149 36.7575 15.98 38.5364 17.7589C40.3152 19.5377 42.6803 20.5173 45.196 20.5173Z" fill="#3C5560"/>
<path d="M68.9061 56.274C68.7732 54.8358 68.0141 53.4927 66.8234 52.5891C65.561 51.6311 63.9417 51.2449 62.3812 51.5294L59.9767 51.9677L55.9687 52.6983C56.065 52.1744 56.1143 51.6412 56.1143 51.1009V48.6521V31.4171C56.1143 30.1827 55.8614 28.9846 55.3623 27.8518C55.4818 27.7334 55.5914 27.6015 55.6884 27.456L71.3738 3.93965C72.1502 2.7756 71.836 1.20253 70.6719 0.426099C69.5079 -0.350335 67.9348 -0.0360671 67.1584 1.12795L52.0108 23.838C50.2308 22.6008 48.0687 21.93 45.8017 21.93C43.1001 21.93 40.547 22.8823 38.6127 24.6113C38.1844 24.9941 37.7964 25.4063 37.4502 25.845C37.4266 25.8637 37.4029 25.8823 37.3798 25.9019L30.5391 31.7234C29.8859 32.2793 28.9519 32.3063 28.2677 31.7891L16.8644 23.1697C15.7481 22.326 14.1592 22.5469 13.3155 23.6631C12.4718 24.7793 12.6927 26.3682 13.8089 27.2119L25.2123 35.8313C26.4048 36.7328 27.8723 37.2234 29.3648 37.2234C29.4303 37.2234 29.496 37.2224 29.5615 37.2205C31.1213 37.1754 32.6347 36.5936 33.8231 35.5823L35.4893 34.1643V51.1009C35.4893 52.4173 35.7769 53.6925 36.344 54.8912C36.8157 55.888 37.4616 56.7915 38.2672 57.5827L23.0799 87.3805C22.4445 88.6271 22.94 90.1529 24.1867 90.7882C24.5552 90.976 24.9481 91.065 25.3351 91.065C26.2575 91.065 27.1469 90.5596 27.5944 89.6814L42.6516 60.1389C43.6575 60.4343 44.7176 60.5879 45.8018 60.5879C48.1705 60.5879 50.425 59.8558 52.2484 58.51C52.3434 58.5036 52.4391 58.4923 52.5351 58.4748L52.6129 58.4606L57.68 57.5369L63.29 56.5142C63.6111 56.4556 63.8465 56.6718 63.8605 56.7402L65.448 73.9193C65.5695 75.2334 66.6738 76.2199 67.9679 76.2199C68.0459 76.2199 68.1247 76.2163 68.204 76.209C69.5973 76.0802 70.6224 74.8464 70.4936 73.4531L68.9061 56.274ZM45.8017 55.5209C42.9094 55.5209 40.5564 53.5381 40.5564 51.1009V31.4171C40.5564 28.9799 42.9094 26.9971 45.8018 26.9971C48.6941 26.9971 51.0472 28.9799 51.0472 31.4171V51.1009C51.0472 53.5381 48.6941 55.5209 45.8017 55.5209Z" fill="#3C5560"/>
<path d="M80.8769 11.1409C80.5346 10.5262 79.9393 10.0563 79.1974 9.89617C77.8297 9.601 76.4816 10.4704 76.1864 11.8382C73.3254 25.094 67.6354 34.657 63.366 40.3452C60.999 43.4987 58.7939 45.8448 57.1951 47.3916V49.8405C57.1951 50.3807 57.1459 50.9139 57.0496 51.4379L61.0576 50.7072C62.7504 49.0408 64.9404 46.6679 67.2851 43.5642C70.2294 39.6667 72.8256 35.3999 75.0013 30.8824C77.7169 25.244 79.7821 19.1962 81.1395 12.9072C81.2745 12.2814 81.1658 11.6596 80.8769 11.1409Z" fill="#3C5560"/>
<path d="M52.7205 86.5523C52.7205 87.9516 53.8547 89.0859 55.254 89.0859C56.6533 89.0859 57.7876 87.9516 57.7876 86.5523V59.0234L52.7205 59.9472V86.5523Z" fill="#3C5560"/>
</g>
<defs>
<clipPath id="clip0">
<rect width="94" height="94" fill="white"/>
</clipPath>
</defs>
</svg>
