<svg width="96" height="96" viewBox="0 0 96 96" fill="none" xmlns="http://www.w3.org/2000/svg">
<path d="M38.5581 31.0645C38.6569 31.2231 38.7714 31.3726 38.9001 31.5107C38.8526 31.6935 38.8093 31.8778 38.7706 32.0638L36.7947 41.5464C38.4182 42.395 40.2729 43.2683 42.2662 43.9447L44.4934 33.2562C45.0381 30.6422 47.3508 28.8407 49.9217 28.8407C50.2954 28.8407 50.6747 28.8788 51.0546 28.9579C52.4957 29.2582 53.7385 30.1091 54.554 31.3539C55.3695 32.5987 55.6532 34.0779 55.3529 35.5191L53.3599 45.084C54.997 44.8564 56.459 44.4237 57.735 43.7853C58.09 43.6078 58.4436 43.4306 58.7965 43.2536C59.136 43.0834 59.4771 42.9124 59.8193 42.7412L61.0757 36.7115C61.3751 35.2747 61.3938 33.8191 61.1334 32.3819L78.9594 13.3372C80.0625 12.1587 80.0014 10.3091 78.8228 9.20592C77.6443 8.10281 75.7947 8.16394 74.6915 9.34247L58.3807 26.7684C57.7922 26.1127 57.1307 25.5278 56.4014 25.0211C55.1457 24.1488 53.748 23.5479 52.247 23.2351C50.7461 22.9224 49.2248 22.915 47.7251 23.2132C46.2819 23.5002 44.9229 24.0566 43.6859 24.867C43.1243 25.2349 42.601 25.6473 42.118 26.1005C41.8009 25.6919 41.4244 25.2087 40.9909 24.6541C39.733 23.0445 37.9767 20.8091 35.7707 18.0102C32.017 13.2475 25.6016 5.12559 25.5635 5.07754C24.5617 3.81177 22.7235 3.5978 21.4577 4.59958C20.1919 5.60139 19.9779 7.43964 20.9797 8.70544C26.3506 15.4915 37.6498 29.8199 38.5581 31.0645ZM38.1688 30.0772C38.23 30.3889 38.3416 30.6887 38.4983 30.9641C38.3564 30.7217 38.2353 30.4185 38.1688 30.0772ZM38.2067 28.7885C38.1502 29.0067 38.1202 29.2271 38.1149 29.4459C38.1199 29.2332 38.1486 29.0127 38.2067 28.7885ZM38.2869 28.5285C38.2757 28.5597 38.2656 28.591 38.2555 28.6223C38.2656 28.5911 38.2756 28.5598 38.2869 28.5285ZM38.2435 28.6585C38.2313 28.6981 38.2201 28.7379 38.2096 28.7778C38.2201 28.7381 38.2312 28.6984 38.2435 28.6585Z" fill="#3C5560"/>
<path d="M44.0738 19.0035C45.0683 19.9979 46.227 20.7789 47.5179 21.325C48.856 21.8909 50.2757 22.1779 51.7375 22.1779C55.3433 22.1779 58.7023 20.3923 60.7229 17.4015C61.6265 16.0639 61.2747 14.247 59.9371 13.3433C58.5995 12.4396 56.7826 12.7914 55.8789 14.129C54.9469 15.5085 53.3988 16.3321 51.7375 16.3321C48.9847 16.3321 46.7452 14.0925 46.7452 11.3398C46.7452 8.58704 48.9847 6.34747 51.7375 6.34747C53.4765 6.34747 55.0637 7.23118 55.9832 8.71143C56.8349 10.0827 58.637 10.5038 60.0083 9.65204C61.3795 8.80026 61.8006 6.99818 60.9489 5.62692C59.9946 4.09059 58.6595 2.8063 57.0879 1.91293C55.4639 0.989694 53.6137 0.501709 51.7375 0.501709C50.2756 0.501709 48.856 0.788661 47.5179 1.35461C46.227 1.90064 45.0682 2.68171 44.0738 3.6761C43.0794 4.67049 42.2983 5.82927 41.7523 7.1202C41.1864 8.45828 40.8994 9.87793 40.8994 11.3398C40.8994 12.8016 41.1864 14.2213 41.7523 15.5593C42.2984 16.8503 43.0794 18.009 44.0738 19.0035Z" fill="#3C5560"/>
<path d="M51.9417 51.8172C51.487 53.4092 50.362 54.6589 48.9435 55.3193C48.937 55.3205 48.9305 55.3213 48.9239 55.3226C48.6085 55.3846 48.3154 55.4958 48.0501 55.6456C47.587 55.771 47.1039 55.8374 46.6112 55.8373C46.2376 55.8373 45.8582 55.7992 45.4783 55.7201C44.0371 55.4197 42.7944 54.5689 41.9789 53.3241C41.4102 52.456 41.1005 51.4738 41.0667 50.4701C39.0199 49.8396 37.1205 49.0375 35.4093 48.2111C35.1449 49.6325 35.1532 51.0702 35.4352 52.4884C35.7023 53.831 36.2027 55.1006 36.9236 56.267L31.7195 66.4327L17.6237 56.5585L11.8726 65.1853C10.9771 66.5284 11.3401 68.3431 12.6832 69.2386C13.1816 69.5708 13.7447 69.7298 14.3018 69.7298C15.2463 69.7298 16.1733 69.2727 16.7365 68.428L19.1694 64.7786L33.864 75.0723L41.3719 60.4063C42.2871 60.8822 43.2624 61.2297 44.2858 61.4429C45.0544 61.603 45.8281 61.6831 46.6017 61.6831C46.7983 61.6831 46.995 61.6775 47.1915 61.6672L49.4903 73.3694L43.835 92.6639L54.1546 94.8529C54.3592 94.8963 54.5631 94.9171 54.7641 94.9171C56.1151 94.917 57.3288 93.9747 57.6204 92.6002C57.9554 91.021 56.9468 89.4693 55.3677 89.1344L51.2191 88.2544L55.5016 73.6435L52.7914 59.8466C52.8098 59.8346 52.8285 59.8232 52.8469 59.8111C54.0839 59.0007 55.1368 57.9771 55.9763 56.7686C56.8487 55.5129 57.4496 54.1152 57.7624 52.6143L58.1605 50.7038C56.6199 51.2152 54.9645 51.558 53.212 51.7266C52.7979 51.7663 52.3735 51.7965 51.9417 51.8172Z" fill="#3C5560"/>
<path d="M86.5477 36.801C83.8944 36.5149 80.9468 36.6882 77.2714 37.3467C74.2858 37.8816 71.2137 38.8102 67.8797 40.1856C64.9503 41.3941 62.0717 42.8374 59.288 44.2332C58.9348 44.4103 58.5809 44.5878 58.2256 44.7654C55.2131 46.2724 51.2861 46.7198 46.5534 46.0953C42.1712 45.517 38.1321 43.5406 35.1028 41.8833C34.5871 41.6012 34.0747 41.295 33.5323 40.9709C32.2379 40.1975 30.8995 39.3977 29.3807 38.8522C28.8252 38.6528 28.2595 38.4432 27.7125 38.2406C26.0538 37.6263 24.3386 36.991 22.5432 36.4952C19.1268 35.5519 16.0807 34.9861 13.231 34.7656C9.5332 34.4795 6.2268 34.8062 3.40354 35.7367C2.2537 36.1156 1.62876 37.355 2.00773 38.5048C2.38669 39.6547 3.62608 40.2797 4.77592 39.9006C8.89844 38.542 14.4836 38.8181 21.3762 40.7214C22.9912 41.1673 24.5448 41.7428 26.1896 42.352C26.7467 42.5583 27.3228 42.7717 27.8987 42.9785C29.0165 43.38 30.1176 44.0379 31.2833 44.7345C31.8371 45.0654 32.4097 45.4076 32.9986 45.7297C36.3624 47.57 40.8778 49.7687 45.9798 50.442C47.5607 50.6506 49.0808 50.7552 50.5245 50.7551C51.4156 50.7551 52.2778 50.7153 53.1069 50.6356C55.7227 50.384 58.1048 49.7282 60.1868 48.6867C60.5431 48.5086 60.8985 48.3304 61.2531 48.1526C66.8096 45.3665 72.0579 42.7349 78.0446 41.6624C81.2979 41.0795 83.8506 40.92 86.0777 41.1601C86.1576 41.1687 86.2368 41.1729 86.3154 41.1729C87.4206 41.1728 88.3711 40.3394 88.4923 39.2156C88.622 38.0118 87.7514 36.9308 86.5477 36.801Z" fill="#3C5560"/>
</svg>
