<svg width="85" height="85" viewBox="0 0 85 85" fill="none" xmlns="http://www.w3.org/2000/svg">
<path d="M82.2309 2.52594C82.2165 2.52594 82.2019 2.52609 82.1874 2.52633C78.7866 2.58816 72.4562 2.70328 66.5618 5.5208C63.3007 7.07957 60.5586 9.28472 58.4119 12.0749C55.9218 15.3115 54.1933 19.3905 53.2746 24.1986C53.1304 24.9533 53.0007 25.7323 52.8849 26.5335C51.865 26.1678 50.983 26.0971 50.6618 26.0836C47.6962 25.8487 44.7282 26.0141 41.8391 26.5755C39.5134 27.0275 37.234 27.7357 35.0642 28.6805C31.8719 30.0706 29.8295 31.5826 29.2474 32.0396C28.9748 32.2036 28.7138 32.374 28.4696 32.5476C27.5154 33.2257 26.7286 34.0507 26.1495 34.9706C26.1148 35.0227 26.0819 35.0763 26.0511 35.1317C25.8811 35.417 25.7298 35.7106 25.6007 36.0118C25.4223 36.4278 25.2847 36.8557 25.1881 37.2917L10.0171 76.3665H2.77039C1.47739 76.3665 0.429199 77.4147 0.429199 78.7076C0.429199 80.0006 1.47739 81.0488 2.77039 81.0488H13.2221L27.38 44.5834C28.2492 45.4842 29.2741 46.0993 30.377 46.3764C30.9066 46.5095 31.4102 46.5678 31.8897 46.5678C32.2507 46.5678 32.5975 46.534 32.9313 46.4748L51.9534 81.0488H62.2302C63.5232 81.0488 64.5714 80.0006 64.5714 78.7076C64.5714 77.4146 63.5232 76.3665 62.2302 76.3665H54.7214L37.1321 44.3966C37.3653 44.2352 37.5897 44.0825 37.8087 43.9447C39.4954 42.8838 41.2934 42.0285 43.1527 41.4028C45.217 40.708 46.9462 40.3548 48.4391 40.323C49.7318 40.2955 50.7574 39.2253 50.7299 37.9325C50.7027 36.6568 49.6601 35.6412 48.3902 35.6412C48.3733 35.6412 48.3564 35.6413 48.3394 35.6417C46.365 35.6837 44.1799 36.1166 41.6592 36.965C39.4495 37.7087 37.3152 38.7235 35.3157 39.9813C34.9374 40.2192 34.583 40.4657 34.2402 40.7042C32.8781 41.6516 32.2504 42.019 31.518 41.8352C30.837 41.6641 30.0621 40.6457 29.7905 39.565C29.7002 39.2056 29.6815 38.8737 29.7156 38.5677L30.1971 37.3276C30.4756 36.9302 30.8356 36.6105 31.1821 36.3642C31.3585 36.2389 31.5535 36.1137 31.7619 35.9922L31.9335 35.8921L32.0858 35.7645C32.1564 35.7053 39.2744 29.8598 50.3393 30.7551L50.3837 30.7636L50.476 30.7626C50.6329 30.7733 51.9727 30.8921 52.3378 31.8362C52.3402 31.8424 52.343 31.8484 52.3455 31.8547C52.1825 34.4519 52.1399 37.2296 52.2197 40.172C52.3502 44.9811 52.8048 50.2472 53.5709 55.824C54.8725 65.2991 56.6008 72.3063 56.6737 72.6C56.9383 73.6655 57.8936 74.3774 58.944 74.3774C59.1308 74.3774 59.3208 74.3548 59.5102 74.3078C60.7651 73.9961 61.5297 72.7262 61.218 71.4713C61.2007 71.4018 59.4775 64.4158 58.2097 55.1868C56.5437 43.0583 56.4275 32.6467 57.8738 25.0774C61.2151 7.59083 75.4376 7.3322 82.2726 7.20794C83.5653 7.18443 84.5943 6.11738 84.5708 4.82458C84.5475 3.54622 83.5041 2.52594 82.2309 2.52594Z" fill="#3C5560"/>
<path d="M68.3755 23.0903C62.9342 23.0903 58.5073 27.5172 58.5073 32.9585C58.5073 35.0007 59.1262 36.9609 60.2971 38.6272C61.4401 40.2537 63.0235 41.4849 64.8763 42.1877C65.1496 42.2914 65.4301 42.3405 65.7061 42.3405C66.6507 42.3405 67.5407 41.7646 67.8956 40.829C68.3541 39.62 67.7458 38.2683 66.5369 37.8097C64.5348 37.0503 63.1897 35.1007 63.1897 32.9585C63.1897 30.099 65.5161 27.7726 68.3755 27.7726C71.2351 27.7726 73.5615 30.099 73.5615 32.9585C73.5615 34.9014 72.4894 36.666 70.7636 37.5636C69.6165 38.1602 69.1702 39.5738 69.7668 40.7209C70.184 41.5229 71.0003 41.9824 71.8458 41.9823C72.2097 41.9823 72.5791 41.8972 72.9242 41.7177C76.2054 40.0111 78.2438 36.6547 78.2438 32.9585C78.2438 27.5171 73.8169 23.0903 68.3755 23.0903Z" fill="#3C5560"/>
</svg>
